{"title":"The Innocence Of Youth 6 XXX 2014 ***[NEW]*** 26 August 2014","uid":10880781,"size":2493000177,"categoryP":"porn","categoryS":"movies","magnet":"?xt=urn:btih:3d3db5556e5db72c70c14daca6719148df9be619&amp;dn=The+Innocence+Of+Youth+6+XXX+2014+%2A%2A%2A%5BNEW%5D%2A%2A%2A+26+August+2014&amp;tr=udp%3A%2F%2Ftracker.openbittorrent.com%3A80&amp;tr=udp%3A%2F%2Fopen.demonii.com%3A1337&amp;tr=udp%3A%2F%2Ftracker.coppersurfer.tk%3A6969&amp;tr=udp%3A%2F%2Fexodus.desync.com%3A6969","seeders":0,"leechers":1,"uploader":null,"files":-1,"time":1409041692,"description":"The Innocence Of Youth 6 XXX 2014 ***[NEW]*** 26 August 2014\n\nPenelope Stone, Zoey Foxx, Kennedy Leigh, and Rahyndee James, may look innocent and sweet, but they're about to let their sexual urges get the best of them! In 4 spicy sexual encounters, watch them fuck all of their innocence of youth away and show you how naughty they really are. Innocence Of Youth # 6 DVD video Don't miss out, because these girls are getting fucked in their prime!\n\nSOURCE :   &lt;a href=&quot; http://nuscotower.com/i/ino_6_dnbd.html&quot; rel=&quot;nofollow&quot; target=&quot;_NEW&quot;&gt; http://nuscotower.com/i/ino_6_dnbd.html&lt;/a&gt;\n\nGeneral\nThe.Innocence.Of.Youth.6.XXX.2014.DVDRiP-ViKTHOR.mp4\nFormat                           : MPEG-4\nFormat profile                   : Base Media\nCodec ID                         : isom\nFile size                        : 2.32 GiB\nDuration                         : 30mn 7s\nOverall bit rate                 : 2 616 Kbps\nEncoded date                     : UTC 2014-08-26 09:59:06\nTagged date                      : UTC 2014-08-26 09:59:06\n\nVideo\nID                               : 1\nFormat                           : MPEG-4 Visual\nFormat profile                   : Simple@L1\nFormat settings, BVOP            : No\nFormat settings, QPel            : No\nFormat settings, GMC             : No warppoints\nFormat settings, Matrix          : Default (H.263)\nCodec ID                         : 20\nDuration                         : 30mn 6s\nBit rate mode                    : Variable\nBit rate                         : 2 488 Kbps\nMaximum bit rate                 : 4 382 Kbps\nWidth                            : 856 pixels\nHeight                           : 480 pixels\nDisplay aspect ratio             : 16:9\nFrame rate mode                  : Constant\nFrame rate                       : 23.976 fps\nColor space                      : YUV\nChroma subsampling               : 4:2:0\nBit depth                        : 8 bits\nScan type                        : Progressive\nCompression mode                 : Lossy\nBits/(Pixel*Frame)               : 0.253\nStream size                      : 536 MiB (95%)\nWriting library                  : Lavc53.8.0\nEncoded date                     : UTC 2014-08-26 09:59:06\nTagged date                      : UTC 2014-08-26 09:59:52\n\nAudio\nID                               : 2\nFormat                           : AAC\nFormat/Info                      : Advanced Audio Codec\nFormat profile                   : LC\nCodec ID                         : 40\nDuration                         : 30mn 7s\nBit rate mode                    : Variable\nBit rate                         : 125 Kbps\nMaximum bit rate                 : 177 Kbps\nChannel(s)                       : 2 channels\nChannel positions                : Front: L R\nSampling rate                    : 44.1 KHz\nCompression mode                 : Lossy\nStream size                      : 27.0 MiB (5%)\nEncoded date                     : UTC 2014-08-26 09:00:44\nTagged date                      : UTC 2014-08-26 09:00:52\n","torrent":{"xt":"urn:btih:3d3db5556e5db72c70c14daca6719148df9be619","amp;dn":"The+Innocence+Of+Youth+6+XXX+2014+%2A%2A%2A%5BNEW%5D%2A%2A%2A+26+August+2014","amp;tr":["udp%3A%2F%2Ftracker.openbittorrent.com%3A80","udp%3A%2F%2Fopen.demonii.com%3A1337","udp%3A%2F%2Ftracker.coppersurfer.tk%3A6969","udp%3A%2F%2Fexodus.desync.com%3A6969"],"infoHash":"3d3db5556e5db72c70c14daca6719148df9be619","infoHashBuffer":{"type":"Buffer","data":[61,61,181,85,110,93,183,44,112,193,77,172,166,113,145,72,223,155,230,25]},"announce":[],"urlList":[]}}